<svg width="80" height="80" viewBox="0 0 80 80" fill="none" xmlns="http://www.w3.org/2000/svg">
<path d="M52.4183 16.1003L48.1612 40.0552H40.9459L43.9042 23.5321C44.0004 23.003 43.9042 22.5701 43.6156 22.2334C43.3269 21.8967 42.9181 21.7283 42.389 21.7283C41.8598 21.7283 41.4029 21.8967 41.018 22.2334C40.6332 22.5701 40.3927 23.003 40.2965 23.5321L37.5547 38.8286C37.4104 39.5983 37.5547 40.3198 37.9876 40.9932C38.4686 41.6186 39.0699 42.2679 39.7914 42.9414C40.5611 43.5667 41.3788 44.2401 42.2446 44.9617C43.1586 45.6832 43.9523 46.5009 44.6257 47.4149C45.3472 48.2807 45.9004 49.2909 46.2852 50.4453C46.67 51.5517 46.7182 52.8504 46.4295 54.3416C46.2371 55.6404 45.8523 56.867 45.2751 58.0214C44.6979 59.1278 43.9523 60.1139 43.0383 60.9797C42.1244 61.8455 41.018 62.519 39.7193 63C38.4686 63.481 37.0015 63.7215 35.3179 63.7215C33.6824 63.7215 32.3115 63.481 31.2052 63C30.0988 62.519 29.233 61.8455 28.6077 60.9797C28.0304 60.1139 27.6697 59.1278 27.5254 58.0214C27.3811 56.867 27.4051 55.6404 27.5975 54.3416L28.1747 51.0947H35.3901L34.6685 55.0631C34.5723 55.6885 34.6926 56.2176 35.0293 56.6505C35.366 57.0353 35.847 57.2277 36.4724 57.2277C37.0977 57.2277 37.6509 57.0353 38.1319 56.6505C38.6129 56.2176 38.9015 55.6885 38.9977 55.0631C39.2383 53.8606 39.1421 52.8504 38.7091 52.0327C38.2762 51.215 37.699 50.4694 36.9775 49.7959C36.2559 49.1225 35.4382 48.4731 34.5242 47.8478C33.6584 47.2225 32.8647 46.525 32.1432 45.7554C31.4216 44.9376 30.8685 43.9756 30.4837 42.8692C30.0988 41.7629 30.0507 40.416 30.3393 38.8286L33.5862 20.4295C33.8268 19.0346 34.428 17.8561 35.3901 16.894C36.3521 15.8839 37.723 15.3788 39.5028 15.3788C41.0421 15.3788 42.2446 15.8358 43.1105 16.7497C44.0244 17.6156 44.5776 18.5295 44.77 19.4915L45.9245 16.1003H52.4183Z" fill="#F3F4F5"/>
</svg>
